<mxfile host="app.diagrams.net" agent="Mozilla/5.0 (Windows NT 10.0; Win64; x64) AppleWebKit/537.36 (KHTML, like Gecko) Chrome/136.0.0.0 YaBrowser/25.6.0.0 Safari/537.36" version="24.8.6">
  <diagram id="C5RBs43oDa-KdzZeNtuy" name="Page-1">
    <mxGraphModel dx="1370" dy="786" grid="1" gridSize="10" guides="1" tooltips="1" connect="1" arrows="1" fold="1" page="1" pageScale="1" pageWidth="827" pageHeight="1169" math="0" shadow="0">
      <root>
        <mxCell id="WIyWlLk6GJQsqaUBKTNV-0" />
        <mxCell id="WIyWlLk6GJQsqaUBKTNV-1" parent="WIyWlLk6GJQsqaUBKTNV-0" />
        <mxCell id="9HjlxeYqdDZV379MyqI9-2" value="" style="edgeStyle=orthogonalEdgeStyle;rounded=0;orthogonalLoop=1;jettySize=auto;html=1;" edge="1" parent="WIyWlLk6GJQsqaUBKTNV-1" source="9HjlxeYqdDZV379MyqI9-0" target="9HjlxeYqdDZV379MyqI9-1">
          <mxGeometry relative="1" as="geometry" />
        </mxCell>
        <mxCell id="9HjlxeYqdDZV379MyqI9-0" value="Сверточные слои" style="rounded=1;whiteSpace=wrap;html=1;" vertex="1" parent="WIyWlLk6GJQsqaUBKTNV-1">
          <mxGeometry x="160" y="40" width="120" height="60" as="geometry" />
        </mxCell>
        <mxCell id="9HjlxeYqdDZV379MyqI9-4" value="" style="edgeStyle=orthogonalEdgeStyle;rounded=0;orthogonalLoop=1;jettySize=auto;html=1;" edge="1" parent="WIyWlLk6GJQsqaUBKTNV-1" source="9HjlxeYqdDZV379MyqI9-1" target="9HjlxeYqdDZV379MyqI9-3">
          <mxGeometry relative="1" as="geometry" />
        </mxCell>
        <mxCell id="9HjlxeYqdDZV379MyqI9-1" value="Слои подвыборки (пулинг)" style="rounded=1;whiteSpace=wrap;html=1;" vertex="1" parent="WIyWlLk6GJQsqaUBKTNV-1">
          <mxGeometry x="160" y="160" width="120" height="60" as="geometry" />
        </mxCell>
        <mxCell id="9HjlxeYqdDZV379MyqI9-6" value="" style="edgeStyle=orthogonalEdgeStyle;rounded=0;orthogonalLoop=1;jettySize=auto;html=1;" edge="1" parent="WIyWlLk6GJQsqaUBKTNV-1" source="9HjlxeYqdDZV379MyqI9-3" target="9HjlxeYqdDZV379MyqI9-5">
          <mxGeometry relative="1" as="geometry" />
        </mxCell>
        <mxCell id="9HjlxeYqdDZV379MyqI9-3" value="Нормализация" style="rounded=1;whiteSpace=wrap;html=1;" vertex="1" parent="WIyWlLk6GJQsqaUBKTNV-1">
          <mxGeometry x="160" y="280" width="120" height="60" as="geometry" />
        </mxCell>
        <mxCell id="9HjlxeYqdDZV379MyqI9-8" value="" style="edgeStyle=orthogonalEdgeStyle;rounded=0;orthogonalLoop=1;jettySize=auto;html=1;" edge="1" parent="WIyWlLk6GJQsqaUBKTNV-1" source="9HjlxeYqdDZV379MyqI9-5" target="9HjlxeYqdDZV379MyqI9-7">
          <mxGeometry relative="1" as="geometry" />
        </mxCell>
        <mxCell id="9HjlxeYqdDZV379MyqI9-5" value="Слои активации" style="rounded=1;whiteSpace=wrap;html=1;" vertex="1" parent="WIyWlLk6GJQsqaUBKTNV-1">
          <mxGeometry x="160" y="400" width="120" height="60" as="geometry" />
        </mxCell>
        <mxCell id="9HjlxeYqdDZV379MyqI9-10" value="" style="edgeStyle=orthogonalEdgeStyle;rounded=0;orthogonalLoop=1;jettySize=auto;html=1;" edge="1" parent="WIyWlLk6GJQsqaUBKTNV-1" source="9HjlxeYqdDZV379MyqI9-7" target="9HjlxeYqdDZV379MyqI9-9">
          <mxGeometry relative="1" as="geometry" />
        </mxCell>
        <mxCell id="9HjlxeYqdDZV379MyqI9-7" value="Полносвязные слои" style="rounded=1;whiteSpace=wrap;html=1;" vertex="1" parent="WIyWlLk6GJQsqaUBKTNV-1">
          <mxGeometry x="160" y="525" width="120" height="60" as="geometry" />
        </mxCell>
        <mxCell id="9HjlxeYqdDZV379MyqI9-9" value="Выходной слой" style="rounded=1;whiteSpace=wrap;html=1;" vertex="1" parent="WIyWlLk6GJQsqaUBKTNV-1">
          <mxGeometry x="160" y="640" width="120" height="60" as="geometry" />
        </mxCell>
      </root>
    </mxGraphModel>
  </diagram>
</mxfile>
